Coordinates
version=1
nRows=22
nColumns=24
inDegrees=yes

Units are S.I. units (second, meters, Newtons, ...)
Angles are in degrees.

endheader
time	pelvis_tilt	pelvis_list	pelvis_rotation	pelvis_tx	pelvis_ty	pelvis_tz	hip_flexion_r	hip_adduction_r	hip_rotation_r	knee_angle_r	ankle_angle_r	subtalar_angle_r	mtp_angle_r	hip_flexion_l	hip_adduction_l	hip_rotation_l	knee_angle_l	ankle_angle_l	subtalar_angle_l	mtp_angle_l	lumbar_extension	lumbar_bending	lumbar_rotation
      6.27000000	      8.63532498	      4.06052007	     10.13407434	      1.57264516	      0.88290283	     -0.33445382	     17.29486942	     -2.86423703	     -9.11841607	     -8.03516223	     15.86545507	      7.58950716	      0.00000000	    -31.93169421	      6.08734033	      8.39113777	    -10.23454455	     17.30037377	     -5.80295209	      0.00000000	    -29.66157709	     -0.80651987	    -12.75761633
      6.28000000	      8.56753898	      3.68033714	     10.19037677	      1.58849531	      0.88089406	     -0.33500065	     18.39979232	     -2.48593557	     -9.13770304	    -11.12059398	     15.80591036	      7.92392545	      0.00000000	    -31.04881929	      5.43072503	      5.63730837	    -13.16944524	     17.59248309	     -2.52354233	      0.00000000	    -29.54137997	     -0.17788296	    -12.94300761
      6.29000000	      8.52337740	      3.20275600	     10.17853295	      1.60453547	      0.87914218	     -0.33539890	     19.54305814	     -1.99830271	     -8.94284857	    -14.44129538	     15.65616959	      8.04117058	      0.00000000	    -30.03817318	      4.61651821	      3.13724382	    -16.27432529	     17.06225272	      0.03246320	      0.00000000	    -29.42303223	      0.53314783	    -13.09183564
      6.30000000	      8.51149585	      2.68780051	     10.12322337	      1.62067112	      0.87767472	     -0.33569250	     20.66058683	     -1.45157334	     -8.61300035	    -17.84552082	     15.52343986	      7.98781148	      0.00000000	    -28.88192235	      3.70440456	      0.97096843	    -19.58592979	     15.66484152	      1.88117227	      0.00000000	    -29.33924122	      1.26880458	    -13.24673953
      6.31000000	      8.59891157	      2.13589524	     10.04987219	      1.63687854	      0.87654910	     -0.33590869	     21.60274196	     -0.81853921	     -8.22442664	    -21.15945104	     15.57749152	      7.76539394	      0.00000000	    -27.63651551	      2.67478623	     -0.88359803	    -23.09759956	     13.45184265	      3.17185597	      0.00000000	    -29.35781903	      2.04134996	    -13.39870782
      6.32000000	      8.81565690	      1.53520118	     10.02730608	      1.65306508	      0.87577832	     -0.33612838	     22.24406126	     -0.09325615	     -7.92379027	    -24.19965534	     15.78687331	      7.37206319	      0.00000000	    -26.29627718	      1.48148006	     -2.42741424	    -26.83820277	     10.58809592	      4.11205600	      0.00000000	    -29.51459399	      2.88814644	    -13.56717575
      6.33000000	      9.08904666	      0.91191598	     10.11071211	      1.66914205	      0.87523799	     -0.33638707	     22.58812932	      0.68649132	     -7.72962884	    -26.84551443	     16.22559749	      6.80873350	      0.00000000	    -24.77524925	      0.16653025	     -3.54241480	    -30.79596035	      7.25432454	      4.79027325	      0.00000000	    -29.72631204	      3.77075085	    -13.76730847
      6.34000000	      9.35935692	      0.26713600	     10.33693704	      1.68502019	      0.87481546	     -0.33671672	     22.65702432	      1.49915728	     -7.69592665	    -29.02350956	     16.90442840	      6.13552807	      0.00000000	    -23.01209800	     -1.23420493	     -4.16349496	    -34.93289028	      3.78362918	      5.35808953	      0.00000000	    -29.92316812	      4.68090595	    -13.98258821
      6.35000000	      9.51977940	     -0.37713816	     10.72063864	      1.70059981	      0.87434535	     -0.33708977	     22.57159033	      2.30203415	     -7.80065550	    -30.74191847	     17.78349166	      5.40861602	      0.00000000	    -20.88969937	     -2.64822013	     -4.27687732	    -39.22851156	      0.60264704	      5.98967041	      0.00000000	    -29.97843053	      5.56857422	    -14.23031109
      6.36000000	      9.54627332	     -1.03423372	     11.25934028	      1.71581291	      0.87380969	     -0.33754030	     22.38502687	      3.07952281	     -8.09183087	    -32.02977163	     18.84689442	      4.76292835	      0.00000000	    -18.41155859	     -4.01801357	     -3.88591884	    -43.59871512	     -1.91764124	      6.73579196	      0.00000000	    -29.87131917	      6.44637564	    -14.45011923
      6.37000000	      9.42370957	     -1.68509155	     11.91627483	      1.73063165	      0.87326126	     -0.33806799	     22.15251262	      3.80062448	     -8.53890430	    -32.94452544	     20.03779641	      4.27218761	      0.00000000	    -15.60932541	     -5.25007935	     -3.06197538	    -47.93808676	     -3.53603276	      7.57592457	      0.00000000	    -29.58213220	      7.28177899	    -14.61272204
      6.38000000	      9.18888802	     -2.31533190	     12.62828685	      1.74506319	      0.87286110	     -0.33866680	     21.87656752	      4.45056211	     -9.11893793	    -33.55134016	     21.28696804	      3.99879462	      0.00000000	    -12.58475191	     -6.28101148	     -1.95781425	    -52.12606300	     -4.20289333	      8.37783577	      0.00000000	    -29.16037681	      8.05138220	    -14.70648582
      6.39000000	      8.91477355	     -2.89630557	     13.32777654	      1.75914386	      0.87284053	     -0.33932900	     21.50104740	      5.01756787	     -9.79511549	    -33.89263911	     22.53440388	      3.95131724	      0.00000000	     -9.49084117	     -7.07419289	     -0.74859711	    -56.03902529	     -4.01311292	      9.01621869	      0.00000000	    -28.70887773	      8.72496821	    -14.70720212
      6.40000000	      8.66417508	     -3.40142265	     13.96240927	      1.77296115	      0.87342681	     -0.34005625	     20.94945720	      5.51058783	    -10.48823189	    -33.96780526	     23.71091114	      4.13343674	      0.00000000	     -6.46857747	     -7.60996586	      0.44154787	    -59.56514298	     -3.19580989	      9.35708381	      0.00000000	    -28.29980513	      9.28325267	    -14.60906033
      6.41000000	      8.49065630	     -3.79549190	     14.48067983	      1.78658321	      0.87475342	     -0.34082430	     20.16985110	      5.92137221	    -11.15953951	    -33.80885634	     24.77113535	      4.47965529	      0.00000000	     -3.63346872	     -7.90379082	      1.47057995	    -62.63736273	     -1.97677840	      9.39264160	      0.00000000	    -28.01844878	      9.69397791	    -14.40444705
      6.42000000	      8.40406304	     -4.05370959	     14.85441368	      1.80010632	      0.87685268	     -0.34160388	     19.13484245	      6.25754183	    -11.72371018	    -33.41015665	     25.68681313	      4.92649263	      0.00000000	     -1.04214845	     -7.96737235	      2.27826254	    -65.21618332	     -0.58292094	      9.13750820	      0.00000000	    -27.87763655	      9.93037134	    -14.10154499
      6.43000000	      8.38514093	     -4.16186131	     15.06220216	      1.81361682	      0.87964920	     -0.34234608	     17.85897171	      6.52485770	    -12.10524831	    -32.78061755	     26.44457598	      5.39933889	      0.00000000	      1.29526016	     -7.82107402	      2.82762668	    -67.29371205	      0.82216005	      8.66121756	      0.00000000	    -27.85425836	      9.96921386	    -13.70818702
      6.44000000	      8.42592084	     -4.13818735	     15.09840031	      1.82718947	      0.88303233	     -0.34299830	     16.34808072	      6.76186262	    -12.23680512	    -31.90773763	     27.01484253	      5.77125370	      0.00000000	      3.37622776	     -7.52175024	      3.10850857	    -68.88216036	      2.12745133	      8.04838098	      0.00000000	    -27.92552713	      9.82481069	    -13.21030326
      6.45000000	      8.42255328	     -3.94899886	     14.94156569	      1.84085409	      0.88675186	     -0.34347959	     14.74039318	      6.90821365	    -12.04465899	    -30.87417057	     27.46082277	      6.07008675	      0.00000000	      5.29272923	     -7.02852614	      3.12201589	    -70.00793424	      3.33963243	      7.41385927	      0.00000000	    -27.98043819	      9.42142651	    -12.66943000
      6.46000000	      8.36681853	     -3.64501514	     14.64164571	      1.85464175	      0.89067538	     -0.34384210	     13.05125912	      6.98560166	    -11.60161139	    -29.66092243	     27.78719772	      6.23711904	      0.00000000	      7.07579884	     -6.41249586	      2.92386483	    -70.69906709	      4.43913297	      6.80849333	      0.00000000	    -27.97521821	      8.83456568	    -12.09244657
      6.47000000	      8.29355253	     -3.25328299	     14.18861073	      1.86854411	      0.89473929	     -0.34400139	     11.25887476	      7.06027790	    -10.75345372	    -28.26625392	     27.89162947	      6.09554853	      0.00000000	      8.69107145	     -5.73616102	      2.51620109	    -70.97223511	      5.45741138	      6.28197072	      0.00000000	    -27.95412418	      8.08941069	    -11.45371382
      6.48000000	      8.16294879	     -2.80454269	     13.62839164	      1.88253893	      0.89878013	     -0.34404233	      9.43376116	      7.09875361	     -9.62108442	    -26.72717008	     27.87537234	      5.71774273	      0.00000000	     10.20692855	     -5.02195367	      1.95818733	    -70.85805320	      6.41215045	      5.82836832	      0.00000000	    -27.85564118	      7.23681262	    -10.77399557
